<svg width="506" height="191" viewBox="0 0 506 191" fill="none" xmlns="http://www.w3.org/2000/svg">
<path d="M260.983 64.7722C261.325 65.7069 261.856 66.7426 261.062 67.5912C256.069 72.9236 253.76 79.7729 250.42 86.0496C248.423 89.8041 246.729 89.6529 244.67 85.64C241.522 79.5025 240.188 72.8608 239.683 66.0275C239.515 63.7573 239.972 61.7546 241.875 60.2611C244.739 58.0138 244.728 54.0369 247.17 50.9525C251.831 55.5826 253.398 62.8358 260.672 64.7612C261.014 64.7937 260.983 64.7722 260.983 64.7722Z" fill="black"/>
<path d="M247.04 41.8158C247.58 43.3478 247.975 44.8411 245.627 45.1086C241.184 45.615 236.959 45.4401 233.849 41.497C230.652 37.4434 229.763 32.3278 232.825 28.5917C237.218 23.2323 239.284 17.3549 240.317 10.576C241.404 3.44981 246.515 -0.0212799 253.761 9.81393e-05C253.462 1.84705 251.713 1.9242 250.56 2.61062C247.026 4.71371 244.595 7.81184 244.445 11.7985C244.112 20.5786 244.294 29.3793 244.357 38.171C244.362 38.8982 245.053 39.6205 245.885 40.7595C246.564 41.4007 246.796 41.6146 247.04 41.8158Z" fill="black"/>
<path d="M247.39 41.9281C246.796 41.6146 246.564 41.4007 246.185 40.9998C246.209 40.3689 246.447 39.4985 246.569 39.5144C254.113 40.4949 261.388 32.9457 269.151 38.8927C271.04 40.3399 273.583 39.3088 275.974 38.7615C274.435 43.1649 271.852 44.6219 267.172 43.0888C263.243 41.8019 259.635 41.3167 255.802 43.1672C252.958 44.54 250.322 43.1987 247.39 41.9281Z" fill="black"/>
<path d="M261.03 64.8044C258.827 59.9835 257.534 54.864 256.034 49.3769C259.667 49.1002 263.08 50.0665 267.306 48.5925C265.905 54.5887 265.12 59.9632 261.311 64.64C260.983 64.7722 261.014 64.7937 261.03 64.8044Z" fill="black"/>
<line x1="3" y1="72.7857" x2="221" y2="72.7857" stroke="black" stroke-width="2"/>
<line x1="3" y1="189.786" x2="503" y2="189.786" stroke="black" stroke-width="2"/>
<line x1="285" y1="72.7857" x2="503" y2="72.7857" stroke="black" stroke-width="2"/>
<path d="M23.97 157.231C20.8533 157.231 17.7933 156.806 14.79 155.956C11.7867 155.106 9.32167 153.887 7.395 152.301C5.525 150.714 4.59 148.901 4.59 146.861V137.766H6.12C7.08333 143.432 8.95333 147.541 11.73 150.091C14.5067 152.584 18.3317 153.831 23.205 153.831C26.265 153.831 28.8717 153.066 31.025 151.536C33.235 150.006 34.34 147.881 34.34 145.161C34.34 142.781 33.6033 140.712 32.13 138.956C30.6567 137.199 28.2767 135.357 24.99 133.431L14.535 127.226C10.9083 125.072 8.33 122.891 6.8 120.681C5.32667 118.471 4.59 115.779 4.59 112.606C4.59 108.242 6.09167 104.757 9.095 102.151C12.155 99.4874 16.15 98.1557 21.08 98.1557C23.97 98.1557 26.8317 98.5807 29.665 99.4307C32.4983 100.224 34.8217 101.414 36.635 103.001C38.505 104.531 39.44 106.316 39.44 108.356V117.451H37.91C36.9467 111.784 35.105 107.732 32.385 105.296C29.7217 102.802 25.9533 101.556 21.08 101.556C18.4733 101.556 16.1783 102.349 14.195 103.936C12.2117 105.522 11.22 107.591 11.22 110.141C11.22 112.464 11.9283 114.391 13.345 115.921C14.8183 117.451 17.255 119.236 20.655 121.276L31.11 127.481C34.9633 129.804 37.6833 131.957 39.27 133.941C40.8567 135.924 41.65 138.446 41.65 141.506C41.65 146.266 40.0633 150.091 36.89 152.981C33.7167 155.814 29.41 157.231 23.97 157.231ZM53.0603 116.366C53.0603 113.884 52.7196 112.059 52.0383 110.891C51.3569 109.674 49.9943 109.066 47.9503 109.066H46.4903V107.606H53.0603C54.8609 107.606 56.1993 107.849 57.0753 108.336C57.9999 108.774 58.6569 109.601 59.0463 110.818C59.4356 112.034 59.6303 113.884 59.6303 116.366V129.506H81.5303V107.606H88.1003V147.026C88.1003 149.508 88.4409 151.357 89.1223 152.574C89.8036 153.742 91.1663 154.326 93.2103 154.326H94.6703V155.786H88.1003C86.2996 155.786 84.9369 155.567 84.0123 155.129C83.1363 154.642 82.5036 153.79 82.1143 152.574C81.7249 151.357 81.5303 149.508 81.5303 147.026V132.426H59.6303V155.786H53.0603V116.366ZM140.844 156.151C138.508 156.151 136.197 155.518 133.909 154.253C131.622 152.939 129.797 150.408 128.434 146.661L126.609 141.916H106.169L100.329 155.786H97.0445L117.484 107.606H119.674L135.734 146.661C136.951 149.483 138.095 151.43 139.165 152.501C140.236 153.523 141.769 154.131 143.764 154.326V155.786C142.888 156.029 141.915 156.151 140.844 156.151ZM125.149 138.996L116.389 117.826L107.264 138.996H125.149ZM187.109 156.516C184.822 156.516 182.437 155.907 179.955 154.691C177.473 153.425 174.626 151.114 171.414 147.756L156.084 131.696V155.786H149.514V116.366C149.514 113.884 149.174 112.059 148.492 110.891C147.811 109.674 146.448 109.066 144.404 109.066H142.944V107.606H149.514C151.315 107.606 152.653 107.849 153.529 108.336C154.454 108.774 155.111 109.601 155.5 110.818C155.89 112.034 156.084 113.884 156.084 116.366V130.601L171.414 115.271L172.874 113.738C174.237 112.326 175.381 111.231 176.305 110.453C177.23 109.625 178.325 108.944 179.59 108.409C180.856 107.873 182.267 107.606 183.824 107.606H187.474V109.431C185.43 109.431 183.654 109.796 182.145 110.526C180.637 111.207 178.885 112.545 176.889 114.541L162.654 128.776L179.444 146.296C181.586 148.486 183.751 150.335 185.941 151.844C188.131 153.304 190.102 154.155 191.854 154.399V155.786C190.394 156.272 188.813 156.516 187.109 156.516ZM198.918 116.366C198.918 113.884 198.577 112.059 197.896 110.891C197.214 109.674 195.852 109.066 193.808 109.066H192.348V107.606H223.446C227.582 107.606 229.651 109.552 229.651 113.446V118.921H228.191C228.191 113.324 225.149 110.526 219.066 110.526H205.488V129.506H225.198V132.426H205.488V152.866H218.263C221.621 152.866 224.249 152.257 226.147 151.041C228.045 149.824 229.553 147.756 230.673 144.836L232.133 145.201L229.578 152.136C228.702 154.569 226.877 155.786 224.103 155.786H198.918V116.366ZM254.824 157.027C252.148 157.027 249.52 156.662 246.94 155.932C244.361 155.202 242.244 154.155 240.589 152.793C238.983 151.43 238.18 149.873 238.18 148.121V140.31H239.494C240.322 145.176 241.928 148.705 244.312 150.895C246.697 153.036 249.982 154.107 254.167 154.107C256.795 154.107 259.034 153.45 260.883 152.136C262.781 150.822 263.73 148.997 263.73 146.661C263.73 144.617 263.098 142.84 261.832 141.332C260.567 139.823 258.523 138.241 255.7 136.587L246.721 131.258C243.607 129.408 241.392 127.535 240.078 125.637C238.813 123.739 238.18 121.427 238.18 118.702C238.18 114.954 239.47 111.961 242.049 109.723C244.677 107.435 248.108 106.292 252.342 106.292C254.824 106.292 257.282 106.657 259.715 107.387C262.149 108.068 264.144 109.09 265.701 110.453C267.307 111.767 268.11 113.3 268.11 115.052V122.863H266.796C265.969 117.996 264.387 114.516 262.051 112.424C259.764 110.282 256.528 109.212 252.342 109.212C250.104 109.212 248.133 109.893 246.429 111.256C244.726 112.618 243.874 114.395 243.874 116.585C243.874 118.58 244.483 120.235 245.699 121.549C246.965 122.863 249.057 124.396 251.977 126.148L260.956 131.477C264.266 133.472 266.602 135.321 267.964 137.025C269.327 138.728 270.008 140.894 270.008 143.522C270.008 147.61 268.646 150.895 265.92 153.377C263.195 155.81 259.496 157.027 254.824 157.027ZM280.9 116.366C280.9 113.884 280.559 112.059 279.878 110.891C279.197 109.674 277.834 109.066 275.79 109.066H274.33V107.606H305.428C309.565 107.606 311.633 109.552 311.633 113.446V118.921H310.173C310.173 113.324 307.131 110.526 301.048 110.526H287.47V129.506H307.18V132.426H287.47V152.866H300.245C303.603 152.866 306.231 152.257 308.129 151.041C310.027 149.824 311.536 147.756 312.655 144.836L314.115 145.201L311.56 152.136C310.684 154.569 308.859 155.786 306.085 155.786H280.9V116.366ZM361.627 156.151C359.291 156.151 356.979 155.518 354.692 154.253C352.404 152.939 350.579 150.408 349.217 146.661L347.392 141.916H326.952L321.112 155.786H317.827L338.267 107.606H340.457L356.517 146.661C357.733 149.483 358.877 151.43 359.948 152.501C361.018 153.523 362.551 154.131 364.547 154.326V155.786C363.671 156.029 362.697 156.151 361.627 156.151ZM345.932 138.996L337.172 117.826L328.047 138.996H345.932ZM402.417 156.516C399.837 156.516 397.574 155.761 395.628 154.253C393.73 152.695 391.613 149.921 389.277 145.931L381.977 133.521H376.867V155.786H370.297V116.366C370.297 113.884 369.956 112.059 369.275 110.891C368.593 109.674 367.231 109.066 365.187 109.066H363.727V107.606H382.707C387.33 107.606 391.515 108.53 395.263 110.38C399.059 112.18 400.957 115.636 400.957 120.746C400.957 127.218 397.063 131.355 389.277 133.156L396.942 145.931C398.742 148.948 400.348 151.065 401.76 152.282C403.22 153.45 404.899 154.131 406.797 154.326V155.786C406.359 155.98 405.726 156.151 404.899 156.297C404.12 156.443 403.293 156.516 402.417 156.516ZM382.342 130.966C383.85 130.966 385.481 130.601 387.233 129.871C389.033 129.141 390.542 127.997 391.759 126.44C393.024 124.882 393.657 122.984 393.657 120.746C393.657 118.361 393.024 116.39 391.759 114.833C390.542 113.227 389.033 112.059 387.233 111.329C385.481 110.55 383.85 110.161 382.342 110.161C380.638 110.161 378.813 110.404 376.867 110.891V130.236C378.813 130.722 380.638 130.966 382.342 130.966ZM431.816 157.246C427.29 157.246 423.299 156.151 419.844 153.961C416.437 151.771 413.809 148.802 411.96 145.055C410.11 141.259 409.186 137.049 409.186 132.426C409.186 127.656 410.183 123.252 412.179 119.213C414.223 115.173 416.972 111.986 420.428 109.65C423.932 107.314 427.728 106.146 431.816 106.146C435.709 106.146 439.116 106.705 442.036 107.825C445.004 108.895 447.194 110.282 448.606 111.986C449.433 113.008 449.944 114.37 450.139 116.074C450.333 117.728 450.431 120.016 450.431 122.936H448.971C448.046 118.215 446.343 114.735 443.861 112.497C441.379 110.209 438.094 109.066 434.006 109.066C428.75 109.066 424.516 110.915 421.304 114.614C418.092 118.312 416.486 124.25 416.486 132.426C416.486 136.27 417.094 139.847 418.311 143.157C419.576 146.466 421.523 149.167 424.151 151.26C426.779 153.304 430.064 154.326 434.006 154.326C437.558 154.326 440.649 153.474 443.277 151.771C445.953 150.067 448.338 147.512 450.431 144.106L451.891 145.201C449.652 149.581 446.878 152.695 443.569 154.545C440.308 156.345 436.39 157.246 431.816 157.246ZM462.259 116.366C462.259 113.884 461.919 112.059 461.237 110.891C460.556 109.674 459.193 109.066 457.149 109.066H455.689V107.606H462.259C464.06 107.606 465.398 107.849 466.274 108.336C467.199 108.774 467.856 109.601 468.245 110.818C468.635 112.034 468.829 113.884 468.829 116.366V129.506H490.729V107.606H497.299V147.026C497.299 149.508 497.64 151.357 498.321 152.574C499.003 153.742 500.365 154.326 502.409 154.326H503.869V155.786H497.299C495.499 155.786 494.136 155.567 493.211 155.129C492.335 154.642 491.703 153.79 491.313 152.574C490.924 151.357 490.729 149.508 490.729 147.026V132.426H468.829V155.786H462.259V116.366Z" fill="black"/>
</svg>
