<svg width="110" height="110" viewBox="0 0 110 110" fill="none" xmlns="http://www.w3.org/2000/svg">
<path d="M55.0574 80.3882C55.4763 81.5306 56.1247 82.7966 55.1538 83.8337C49.0523 90.3511 46.2291 98.7224 42.1476 106.394C39.7062 110.983 37.6359 110.798 35.1201 105.893C31.2722 98.392 29.6419 90.2743 29.0241 81.9226C28.8188 79.1478 29.3771 76.7 31.7034 74.8747C35.204 72.128 35.1903 67.2673 38.1754 63.4975C43.8719 69.1565 45.7872 78.0215 54.6779 80.3748C55.0956 80.4145 55.0574 80.3882 55.0574 80.3882Z" fill="black"/>
<path d="M38.0164 52.3304C38.6762 54.2028 39.1593 56.028 36.2897 56.355C30.8586 56.9739 25.6951 56.7601 21.8938 51.9408C17.9859 46.9863 16.9002 40.734 20.6429 36.1677C26.0118 29.6173 28.5367 22.4337 29.7998 14.1484C31.1277 5.43866 37.3751 1.19622 46.2312 1.22235C45.8659 3.47974 43.7283 3.57403 42.3186 4.41298C37.9993 6.98343 35.0285 10.77 34.844 15.6426C34.4377 26.3738 34.6605 37.1303 34.7371 47.8757C34.7434 48.7645 35.588 49.6473 36.6044 51.0394C37.4347 51.823 37.7183 52.0846 38.0164 52.3304Z" fill="black"/>
<path d="M38.4443 52.4677C37.7183 52.0845 37.4347 51.823 36.9709 51.3331C37.0008 50.562 37.2912 49.4981 37.4407 49.5176C46.6613 50.716 55.5528 41.4892 65.041 48.7577C67.35 50.5266 70.4572 49.2663 73.3801 48.5974C71.4995 53.9793 68.342 55.7601 62.6217 53.8863C57.8197 52.3134 53.4103 51.7204 48.7249 53.9821C45.249 55.66 42.0274 54.0207 38.4443 52.4677Z" fill="black"/>
<path d="M55.1153 80.4276C52.4231 74.5354 50.8417 68.2783 49.0085 61.5718C53.4486 61.2337 57.6201 62.4147 62.7855 60.613C61.0739 67.9418 60.1145 74.5106 55.4592 80.2267C55.0573 80.3882 55.0955 80.4145 55.1153 80.4276Z" fill="black"/>
</svg>
